<svg width="100" height="100" viewBox="0 0 100 100" fill="none" xmlns="http://www.w3.org/2000/svg">
    <rect width="100" height="100" rx="50" fill="white" />
    <path
        d="M21.296 44.412L23.296 43.772V55.132L21.296 55.788V51.164H17.44V55.132L15.44 55.788V51.164H14.16L14.704 50.092H15.44V44.412L17.44 43.772V50.092H21.296V44.412ZM29.5948 47.356C30.2134 47.356 30.7308 47.516 31.1468 47.836C31.5628 48.1453 31.7708 48.5987 31.7708 49.196C31.7708 49.676 31.5094 50.2147 30.9868 50.812C30.4748 51.3987 29.8614 51.948 29.1468 52.46C28.4428 52.9613 27.8401 53.324 27.3388 53.548C27.7868 54.2627 28.4428 54.62 29.3068 54.62C29.7868 54.62 30.2668 54.4867 30.7468 54.22C31.2374 53.9427 31.6534 53.58 31.9948 53.132L32.3148 53.516C31.7601 54.2093 31.1734 54.748 30.5548 55.132C29.9468 55.5053 29.2214 55.692 28.3788 55.692C27.6961 55.692 27.0828 55.5373 26.5388 55.228C26.0054 54.9187 25.5841 54.4973 25.2747 53.964C24.9761 53.42 24.8268 52.812 24.8268 52.14C24.8268 51.3293 25.0454 50.556 25.4828 49.82C25.9308 49.0733 26.5228 48.476 27.2588 48.028C27.9948 47.58 28.7734 47.356 29.5948 47.356ZM28.6828 48.396C28.2774 48.396 27.9148 48.5453 27.5948 48.844C27.2748 49.132 27.0241 49.5053 26.8428 49.964C26.6614 50.4227 26.5707 50.8973 26.5707 51.388C26.5707 52.028 26.7094 52.5773 26.9868 53.036C27.3814 52.812 27.7974 52.5027 28.2348 52.108C28.6828 51.7027 29.0561 51.2707 29.3548 50.812C29.6534 50.3533 29.8028 49.9373 29.8028 49.564C29.8028 49.1907 29.7014 48.9027 29.4988 48.7C29.3068 48.4973 29.0348 48.396 28.6828 48.396ZM35.9828 54.028C35.9828 54.1667 36.0148 54.2893 36.0788 54.396C36.1534 54.5027 36.2654 54.556 36.4148 54.556C36.5641 54.556 36.7134 54.4973 36.8628 54.38C37.0228 54.2627 37.1508 54.1347 37.2468 53.996L37.5348 54.3C37.3534 54.6627 37.0868 54.972 36.7348 55.228C36.3934 55.484 36.0254 55.612 35.6308 55.612C34.5961 55.612 34.0788 55.052 34.0788 53.932V41.388L35.9828 40.7V54.028ZM41.014 54.028C41.014 54.1667 41.046 54.2893 41.11 54.396C41.1847 54.5027 41.2967 54.556 41.446 54.556C41.5953 54.556 41.7447 54.4973 41.894 54.38C42.054 54.2627 42.182 54.1347 42.278 53.996L42.566 54.3C42.3847 54.6627 42.118 54.972 41.766 55.228C41.4247 55.484 41.0567 55.612 40.662 55.612C39.6273 55.612 39.11 55.052 39.11 53.932V41.388L41.014 40.7V54.028ZM47.5813 47.692C46.8773 48.1933 46.3226 48.764 45.9173 49.404C45.5226 50.0333 45.3253 50.7747 45.3253 51.628C45.3253 52.0973 45.4159 52.572 45.5973 53.052C45.7786 53.532 46.0453 53.932 46.3973 54.252C46.7493 54.5613 47.1706 54.716 47.6613 54.716C48.2799 54.716 48.7759 54.492 49.1493 54.044C49.5333 53.596 49.7253 53.0413 49.7253 52.38C49.7253 51.8787 49.5919 51.372 49.3253 50.86C49.0693 50.3373 48.7226 49.9 48.2853 49.548C47.8479 49.1853 47.3786 48.9827 46.8773 48.94C47.1013 48.6947 47.3413 48.4707 47.5973 48.268C47.8639 48.0653 48.1946 47.82 48.5893 47.532C49.3573 47.788 49.9653 48.2627 50.4133 48.956C50.8719 49.6493 51.1013 50.412 51.1013 51.244C51.1013 51.98 50.9359 52.6947 50.6053 53.388C50.2853 54.0813 49.8159 54.6467 49.1973 55.084C48.5893 55.5107 47.8799 55.724 47.0693 55.724C46.3973 55.724 45.7786 55.5693 45.2133 55.26C44.6586 54.94 44.2159 54.508 43.8853 53.964C43.5546 53.4093 43.3893 52.8013 43.3893 52.14C43.3893 50.9987 43.7466 49.996 44.4613 49.132C45.1866 48.268 46.1253 47.6653 47.2773 47.324L47.5813 47.692ZM61.6738 53.644C61.3218 54.2627 60.9004 54.7533 60.4097 55.116C59.9191 55.468 59.4231 55.644 58.9218 55.644C58.4418 55.644 58.0471 55.5213 57.7378 55.276C57.4391 55.02 57.0711 54.5453 56.6338 53.852L55.0498 51.484L54.8578 51.708V55.132L52.8578 55.788V44.412L54.8578 43.772V50.156L59.8498 44.108L61.1138 44.204L56.2977 49.98L58.7618 53.628C58.9218 53.8947 59.0764 54.0867 59.2258 54.204C59.3858 54.3107 59.5778 54.3587 59.8018 54.348C60.0471 54.348 60.3031 54.2573 60.5698 54.076C60.8471 53.884 61.0924 53.6387 61.3058 53.34L61.6738 53.644ZM64.8741 43.756V47.1C65.1515 46.0333 65.5728 45.2227 66.1381 44.668C66.7035 44.1133 67.3061 43.836 67.9461 43.836C68.5008 43.836 68.9168 44.012 69.1941 44.364C69.4715 44.716 69.6208 45.18 69.6421 45.756V47.116C69.9088 46.0493 70.3248 45.2387 70.8901 44.684C71.4555 44.1187 72.0581 43.836 72.6981 43.836C73.2528 43.836 73.6741 44.0173 73.9621 44.38C74.2608 44.732 74.4101 45.1907 74.4101 45.756V53.884C74.4101 54.108 74.4581 54.2947 74.5541 54.444C74.6608 54.5827 74.8101 54.652 75.0021 54.652C75.1621 54.652 75.3221 54.604 75.4821 54.508C75.6528 54.4013 75.8021 54.268 75.9301 54.108L76.2661 54.428C75.7755 55.2173 75.0821 55.612 74.1861 55.612C73.6208 55.612 73.1835 55.436 72.8741 55.084C72.5648 54.732 72.4101 54.1987 72.4101 53.484V46.172C72.4101 45.3187 72.2021 44.892 71.7861 44.892C71.4661 44.892 71.1355 45.148 70.7941 45.66C70.4635 46.172 70.1861 46.8227 69.9621 47.612C69.7488 48.3907 69.6421 49.148 69.6421 49.884V55.132L67.6421 55.788V46.172C67.6421 45.3187 67.4448 44.892 67.0501 44.892C66.7301 44.892 66.3995 45.148 66.0581 45.66C65.7168 46.172 65.4341 46.8227 65.2101 47.612C64.9861 48.3907 64.8741 49.148 64.8741 49.884V55.132L62.8901 55.788V44.412L64.8741 43.756ZM82.2884 43.852C83.355 43.852 84.2137 44.1453 84.8644 44.732C85.5257 45.308 85.8564 46.108 85.8564 47.132C85.8564 48.0173 85.5577 48.8387 84.9604 49.596C84.363 50.3427 83.5844 50.94 82.6244 51.388C81.675 51.8253 80.699 52.044 79.6964 52.044C79.579 52.044 79.4724 52.0387 79.3764 52.028L79.4564 51.58C80.1817 51.484 80.8804 51.2547 81.5524 50.892C82.2244 50.5187 82.7684 50.0387 83.1844 49.452C83.611 48.8547 83.8244 48.1827 83.8244 47.436C83.8244 46.6573 83.6004 46.0387 83.1524 45.58C82.715 45.1213 82.0484 44.892 81.1524 44.892C80.4057 44.892 79.6377 45.068 78.8484 45.42C78.0697 45.772 77.3604 46.2307 76.7204 46.796L76.3044 46.348C77.1044 45.612 78.0164 45.0147 79.0404 44.556C80.0644 44.0867 81.147 43.852 82.2884 43.852ZM79.3124 55.132L77.3764 55.788V46.748L79.3124 46.092V55.132Z"
        fill="black" />
</svg>